<?xml version="1.0" standalone="no"?>
<!DOCTYPE svg PUBLIC "-//W3C//DTD SVG 20010904//EN"
 "http://www.w3.org/TR/2001/REC-SVG-20010904/DTD/svg10.dtd">
<svg version="1.0" xmlns="http://www.w3.org/2000/svg"
 width="360.000000pt" height="360.000000pt" viewBox="0 0 360.000000 360.000000"
 preserveAspectRatio="xMidYMid meet">
<metadata>
Created by potrace 1.14, written by Peter Selinger 2001-2017
</metadata>
<g transform="translate(0.000000,360.000000) scale(0.100000,-0.100000)"
fill="#000000" stroke="none">
<path d="M983 3124 c-34 -7 -70 -17 -81 -23 -22 -12 -172 -31 -243 -31 -90 0
-148 -26 -214 -94 -33 -34 -94 -88 -137 -119 -79 -58 -129 -119 -153 -187 -56
-159 0 -360 143 -512 181 -191 301 -181 247 22 -21 80 -19 81 22 15 39 -64
141 -195 152 -195 3 0 14 -14 23 -30 16 -29 16 -32 -3 -78 -56 -129 -65 -295
-24 -418 14 -40 32 -109 41 -151 9 -43 45 -168 82 -278 63 -190 66 -204 64
-289 -1 -60 4 -98 13 -117 37 -71 119 -95 204 -59 45 20 53 21 64 8 39 -49 87
-71 174 -79 83 -9 90 -8 141 17 82 40 141 132 250 392 l47 112 105 5 c58 2
114 5 124 7 15 2 22 -5 30 -31 14 -49 -11 -87 -95 -145 -84 -58 -107 -97 -89
-152 29 -86 177 -122 284 -70 70 34 191 155 240 239 21 37 40 67 42 67 2 0 17
-19 34 -42 35 -48 39 -98 14 -172 -12 -35 -27 -54 -56 -73 -72 -48 -86 -120
-32 -162 62 -49 218 -51 312 -5 68 33 81 55 85 140 3 57 11 82 43 143 l39 75
1 230 c0 154 5 248 13 281 13 51 17 251 5 288 -5 17 -3 19 17 13 69 -21 122
-26 175 -17 180 34 344 217 375 423 11 65 10 86 -5 145 -26 105 -117 219 -171
211 -17 -3 -21 -13 -27 -71 -22 -192 -135 -364 -274 -416 -109 -41 -151 -28
-254 78 -116 120 -200 151 -411 150 -91 -1 -184 8 -202 18 -4 3 3 19 16 36
106 140 138 347 73 477 -33 66 -81 119 -157 171 -31 21 -78 63 -104 93 -67 79
-107 95 -267 107 -92 7 -159 18 -218 36 -75 23 -104 26 -250 28 -105 2 -188
-2 -227 -11z m509 -71 c135 -67 243 -186 288 -317 27 -78 38 -261 20 -337 -14
-60 -61 -143 -95 -165 -30 -20 -57 -8 -133 56 -72 59 -81 55 -18 -9 60 -60 90
-123 89 -188 0 -44 -7 -60 -44 -114 -54 -77 -98 -109 -152 -109 -33 0 -48 8
-92 48 -34 32 -70 54 -100 62 l-46 13 3 70 c3 64 5 72 25 77 20 4 47 24 113
83 11 9 20 30 20 46 0 120 -255 156 -345 49 -14 -16 -25 -39 -25 -50 0 -27 95
-116 135 -126 29 -8 30 -10 33 -78 l3 -70 -45 -12 c-30 -8 -65 -29 -101 -62
-44 -40 -62 -50 -91 -50 -48 0 -84 21 -132 75 -102 116 -96 212 22 343 52 58
47 56 -34 -9 -71 -57 -87 -63 -115 -45 -34 22 -72 75 -91 127 -19 52 -22 209
-6 307 15 86 64 180 133 256 70 76 140 123 229 154 60 21 79 22 266 20 l201
-3 85 -42z m-712 -18 c-7 -8 -18 -15 -25 -15 -36 0 -232 -216 -298 -328 -37
-64 -74 -183 -82 -267 -6 -64 -4 -80 29 -179 20 -59 33 -113 30 -118 -21 -33
-119 45 -186 147 -58 88 -81 176 -76 283 7 131 52 205 178 289 25 17 71 58
102 92 31 34 74 69 95 77 21 9 83 20 138 24 55 4 102 8 104 9 2 0 -2 -6 -9
-14z m935 1 c95 -6 147 -29 195 -85 22 -25 82 -77 133 -116 81 -62 96 -78 127
-139 33 -65 35 -75 35 -165 -1 -85 -4 -104 -33 -172 -51 -119 -160 -239 -217
-239 -22 0 -19 25 15 120 48 136 35 282 -38 425 -61 121 -235 315 -324 361
-36 19 -35 24 5 19 17 -2 64 -6 102 -9z m1600 -662 c1 -5 10 -34 20 -64 16
-44 20 -81 20 -182 0 -123 1 -128 20 -122 11 4 26 11 34 18 19 15 9 -20 -31
-104 -39 -81 -124 -167 -205 -206 -74 -37 -187 -44 -247 -17 -35 17 -40 25
-67 103 -16 47 -29 87 -29 90 0 3 30 5 68 5 92 0 160 34 243 122 85 91 149
238 149 341 0 22 4 32 13 30 6 -3 12 -9 12 -14z m-2048 -39 c46 -19 73 -43 73
-64 0 -13 -4 -11 -18 5 -57 71 -216 72 -266 3 l-17 -24 3 25 c7 56 143 89 225
55z m557 -157 c-18 -70 -18 -117 3 -140 36 -40 120 -11 208 73 51 48 51 48 95
38 25 -6 122 -14 215 -18 162 -7 174 -9 235 -38 112 -53 202 -162 241 -292 19
-66 21 -89 16 -215 -3 -95 -12 -170 -27 -230 -30 -125 -27 -230 9 -269 24 -26
26 -35 26 -125 0 -94 -1 -100 -39 -169 -32 -59 -39 -85 -44 -145 -5 -82 -16
-101 -77 -129 -71 -33 -95 -18 -59 36 16 24 15 25 -6 25 -16 0 -26 -11 -38
-40 -16 -36 -20 -40 -54 -40 -33 0 -38 3 -38 23 0 12 7 33 16 45 19 27 14 36
-15 27 -13 -4 -25 -21 -32 -46 -14 -44 -16 -45 -41 -22 -33 30 -23 67 30 111
54 45 86 116 84 187 0 56 -12 77 -87 155 -129 135 -178 244 -174 388 1 56 -2
87 -9 90 -13 4 -18 -17 -26 -100 -4 -41 -1 -73 14 -120 11 -34 20 -66 20 -69
0 -4 -26 -18 -58 -32 -104 -47 -316 -88 -376 -73 l-26 6 19 31 c11 18 17 37
15 44 -3 6 4 33 16 60 11 26 19 49 18 50 -2 2 -38 -36 -81 -84 -74 -81 -78
-88 -73 -122 10 -62 -12 -139 -78 -274 -65 -134 -108 -195 -157 -221 -32 -16
-154 -19 -193 -4 -34 12 -33 26 4 60 30 28 39 50 19 50 -21 0 -51 -22 -68 -51
l-19 -30 -21 27 c-39 49 -22 86 54 119 52 23 54 26 83 102 49 128 62 182 72
302 9 115 39 229 66 251 8 7 14 21 14 32 0 35 -33 15 -58 -35 -30 -58 -42
-109 -49 -209 l-5 -78 -43 0 c-102 0 -262 50 -376 116 -68 40 -160 137 -194
205 -67 130 -72 290 -15 442 l22 58 23 -25 c34 -36 95 -64 130 -59 26 4 39 -4
100 -65 83 -82 126 -101 193 -82 28 7 58 26 83 52 29 30 43 38 51 30 8 -8 18
-5 39 11 15 12 55 38 89 57 34 19 77 52 96 75 108 123 188 225 215 272 17 29
32 53 34 53 2 0 -3 -24 -11 -52z m-504 -386 c-66 -71 -86 -82 -140 -82 -38 0
-48 6 -111 67 -38 36 -69 70 -69 74 0 4 10 11 22 14 17 6 30 -2 63 -38 71 -77
132 -76 210 3 44 44 51 48 65 35 14 -13 11 -20 -40 -73z m-303 -649 l93 -46 0
-71 c0 -104 17 -193 47 -244 23 -39 25 -48 15 -76 -7 -18 -12 -40 -12 -49 0
-28 -18 -19 -22 11 -2 16 -9 27 -18 27 -11 0 -15 -12 -15 -45 l0 -45 -42 -3
c-41 -3 -42 -3 -49 35 -4 21 -9 42 -12 47 -9 15 -30 -24 -25 -44 8 -31 -15
-23 -32 11 -13 23 -15 45 -10 93 8 70 2 92 -91 378 -30 91 -54 173 -54 182 0
9 27 -11 67 -50 49 -47 92 -78 160 -111z m1327 -95 l59 -81 -29 -56 c-35 -67
-173 -209 -229 -236 -62 -29 -124 -31 -181 -5 l-49 22 34 28 c18 16 30 33 27
39 -8 12 -34 4 -58 -17 -17 -14 -18 -13 -18 11 0 30 13 45 90 97 78 53 104 95
95 158 l-6 48 48 12 c26 7 71 23 98 36 28 14 52 25 55 25 3 1 32 -36 64 -81z
m-1109 23 c28 -5 71 -13 98 -16 31 -4 47 -11 47 -20 0 -21 -59 -204 -77 -238
-11 -23 -64 -57 -86 -57 -2 0 -18 30 -35 68 -26 56 -32 85 -38 176 l-7 109 24
-6 c13 -3 47 -11 74 -16z"/>
<path d="M735 2716 c-43 -19 -81 -64 -96 -113 -34 -116 79 -241 197 -218 49 9
108 67 124 122 40 134 -100 264 -225 209z m153 -88 c19 -19 14 -46 -9 -59 -18
-9 -25 -7 -41 9 -16 16 -18 23 -9 41 13 23 40 28 59 9z"/>
<path d="M1515 2717 c-103 -47 -137 -189 -67 -276 92 -115 277 -50 290 102 5
66 -16 117 -65 154 -40 31 -113 40 -158 20z m23 -89 c30 -30 -4 -77 -41 -57
-20 11 -23 55 -4 62 21 9 32 8 45 -5z"/>
</g>
</svg>
